# Blender 3.3.1
# www.blender.org
mtllib podest_01.mtl
o Cube.001
v -0.500000 0.123483 0.500000
v -0.500000 1.123483 0.500000
v -0.500000 0.123483 -0.500000
v -0.500000 1.123483 -0.500000
v 0.500000 0.123483 0.500000
v 0.500000 1.123483 0.500000
v 0.500000 0.123483 -0.500000
v 0.500000 1.123483 -0.500000
vn -1.0000 -0.0000 -0.0000
vn -0.0000 -0.0000 -1.0000
vn 1.0000 -0.0000 -0.0000
vn -0.0000 -0.0000 1.0000
vn -0.0000 1.0000 -0.0000
vt 1.000000 0.000000
vt 0.000000 0.000000
vt 1.000000 1.000000
vt 0.000000 1.000000
vt 0.523857 0.989384
vt 0.000000 0.000000
vt 1.000000 0.000000
vt 0.000000 1.000000
vt 1.000000 1.000000
vt 0.523857 0.983425
vt 0.000000 0.000000
vt 1.000000 0.000000
vt 0.000000 1.000000
vt 1.000000 1.000000
vt 0.495583 0.989384
vt 0.000000 0.000000
vt 1.000000 0.000000
vt 0.000000 1.000000
vt 1.000000 1.000000
vt 0.495583 0.983425
s 0
usemtl Wall_01
f 1/1/1 2/3/1 4/8/1 3/6/1
f 3/7/2 4/9/2 8/18/2 7/16/2
f 7/17/3 8/19/3 6/13/3 5/11/3
f 5/12/4 6/14/4 2/4/4 1/2/4
f 8/20/5 4/10/5 2/5/5 6/15/5
