# Blender 3.3.1
# www.blender.org
mtllib wall01.mtl
o Plane.004
v 11.414347 -0.000005 -30.610697
v 11.414347 2.127521 -30.610697
v 11.414347 -0.000005 27.202993
v 11.414347 2.127521 27.202993
v -2.317268 2.127522 27.316271
v -2.317268 -0.000003 27.316271
v -23.554413 2.127520 -25.758638
v -23.554413 -0.000005 -25.758638
v -2.317272 2.127520 27.316275
v -2.317274 -0.000002 27.316275
v -11.559248 2.127520 27.118254
v -11.559248 -0.000004 27.118254
v -24.142185 2.127519 26.972860
v -24.142185 -0.000005 26.972860
v -8.141258 2.127520 27.171041
v -8.141258 -0.000003 27.171041
v -11.559248 -0.000004 27.955065
v -11.559248 2.127520 27.955065
v -24.503666 2.127520 27.796015
v -24.503666 -0.000005 27.796015
v -2.043522 -0.000002 28.181368
v -2.043518 2.127520 28.181368
v -8.141258 2.127520 28.023195
v -8.141258 -0.000003 28.023195
v -30.620068 2.127521 20.356298
v -30.620068 -0.000004 20.356298
v -39.414734 2.127520 11.356012
v -39.414734 -0.000005 11.356012
v -28.240511 2.127520 22.810514
v -28.240511 -0.000003 22.810514
v -31.211788 -0.000004 20.948019
v -31.211788 2.127520 20.948019
v -40.252403 2.127520 11.682459
v -40.252403 -0.000005 11.682459
v -28.843077 2.127520 23.413069
v -28.843077 -0.000003 23.413069
v -39.316673 2.127521 2.096840
v -39.316673 -0.000004 2.096840
v -39.171272 2.127519 -10.486096
v -39.171272 -0.000005 -10.486096
v -39.369461 2.127520 5.514830
v -39.369461 -0.000003 5.514830
v -40.153488 -0.000004 2.096840
v -40.153488 2.127521 2.096840
v -39.994427 2.127519 -10.847580
v -39.994427 -0.000005 -10.847580
v -40.221611 2.127520 5.514828
v -40.221611 -0.000003 5.514828
v -32.554710 2.127520 -16.963974
v -32.554710 -0.000004 -16.963974
v -23.554417 2.127520 -25.758640
v -23.554417 -0.000005 -25.758640
v -35.008919 2.127520 -14.584419
v -35.008919 -0.000003 -14.584419
v -33.146431 -0.000004 -17.555693
v -33.146431 2.127520 -17.555693
v -23.880863 2.127520 -26.596304
v -23.880863 -0.000005 -26.596306
v -35.611485 2.127520 -15.186982
v -35.611485 -0.000003 -15.186982
vn 0.1374 -0.0000 0.9905
vn -0.0082 -0.0000 -1.0000
vn 0.0249 -0.0000 -0.9997
vn 0.0116 -0.0000 -0.9999
vn -0.0123 -0.0000 0.9999
vn -0.0259 -0.0000 0.9997
vn 0.7126 -0.0000 -0.7016
vn 0.7152 -0.0000 -0.6989
vn -0.7157 -0.0000 0.6984
vn -0.7106 -0.0000 0.7036
vn 1.0000 -0.0000 0.0078
vn 0.9999 -0.0000 0.0116
vn -0.9999 -0.0000 -0.0123
vn -1.0000 -0.0000 -0.0050
vn 0.7016 -0.0000 0.7126
vn 0.6989 -0.0000 0.7152
vn -0.6984 -0.0000 -0.7157
vn -0.7036 -0.0000 -0.7106
vt 0.962794 0.950156
vt 0.962794 0.962794
vt 0.035289 0.960543
vt 0.035289 0.964711
vt 0.964711 0.964711
vt 0.964711 0.035289
vt 0.037206 0.962794
vt 0.037206 0.037206
vt 0.966777 0.959466
vt 0.966777 0.045054
vt 0.037129 0.962759
vt 0.037129 0.045054
vt 0.966777 0.959466
vt 0.966777 0.045054
vt 0.037129 0.962759
vt 0.037129 0.045054
vt 0.037129 0.045054
vt 0.037129 0.962759
vt 0.966777 0.959466
vt 0.966777 0.045054
vt 0.966777 0.045054
vt 0.966777 0.959466
vt 0.037129 0.962759
vt 0.037129 0.045054
vt 0.037129 0.962759
vt 0.037129 0.045054
vt 0.966777 0.959466
vt 0.966777 0.045054
vt 0.037129 0.962759
vt 0.037129 0.045054
vt 0.037129 0.045054
vt 0.037129 0.962759
vt 0.966777 0.959466
vt 0.966777 0.045054
vt 0.037129 0.962759
vt 0.037129 0.045054
vt 0.037129 0.962759
vt 0.037129 0.045054
vt 0.966777 0.959466
vt 0.966777 0.045054
vt 0.037129 0.962759
vt 0.037129 0.045054
vt 0.037129 0.045054
vt 0.037129 0.962759
vt 0.966777 0.959466
vt 0.966777 0.045054
vt 0.037129 0.962759
vt 0.037129 0.045054
vt 0.037129 0.962759
vt 0.037129 0.045054
vt 0.966777 0.959466
vt 0.966777 0.045054
vt 0.037129 0.962759
vt 0.037129 0.045054
vt 0.037129 0.045054
vt 0.037129 0.962759
vt 0.966777 0.959466
vt 0.966777 0.045054
vt 0.037129 0.962759
vt 0.037129 0.045054
s 0
usemtl Wall_01
f 8/8/1 1/1/1 2/2/1 7/7/1
f 5/5/2 4/4/2 3/3/2 6/6/2
f 15/15/3 9/9/3 10/10/3 16/16/3
f 12/12/4 14/14/4 13/13/4 11/11/4
f 17/17/5 18/18/5 19/19/5 20/20/5
f 23/23/6 24/24/6 21/21/6 22/22/6
f 29/29/7 13/13/7 14/14/7 30/30/7
f 26/26/8 28/28/8 27/27/8 25/25/8
f 31/31/9 32/32/9 33/33/9 34/34/9
f 35/35/10 36/36/10 20/20/10 19/19/10
f 41/41/11 27/27/11 28/28/11 42/42/11
f 38/38/12 40/40/12 39/39/12 37/37/12
f 43/43/13 44/44/13 45/45/13 46/46/13
f 47/47/14 48/48/14 34/34/14 33/33/14
f 53/53/15 39/39/15 40/40/15 54/54/15
f 50/50/16 52/52/16 51/51/16 49/49/16
f 55/55/17 56/56/17 57/57/17 58/58/17
f 59/59/18 60/60/18 46/46/18 45/45/18
o Plane.005
v -23.885855 -0.000005 -26.595890
v -23.885855 2.127521 -26.595890
v -35.626400 2.127520 -59.534828
v -35.626400 -0.000005 -59.534828
v -85.936989 2.127520 -59.534828
v -85.936989 -0.000005 -59.534828
v -85.936989 2.127520 -29.356911
v -85.936989 -0.000005 -29.356911
v -39.994423 2.127520 -10.847588
v -39.994423 -0.000005 -10.847588
v -87.084496 2.127520 -26.751720
v -87.084496 -0.000005 -26.751720
v -107.219162 2.127520 -7.191467
v -107.219162 -0.000005 -7.191467
v -107.219162 2.127520 33.951111
v -107.219162 -0.000005 33.951111
v -73.667862 2.127520 33.951111
v -73.667862 -0.000005 33.951111
v -40.252399 2.127520 11.204819
v -40.252399 -0.000005 11.204819
v -73.085884 2.127520 35.242546
v -73.085884 -0.000005 35.242546
v -95.448158 2.127520 35.242546
v -95.448158 -0.000005 35.242546
v -112.219154 2.127520 57.422913
v -112.219154 -0.000005 57.422913
v -80.058449 2.127520 86.988159
v -80.058449 -0.000005 86.988159
v -49.364922 2.127520 80.274612
v -49.364922 -0.000005 80.274612
v -24.503662 2.127520 27.607620
v -24.503662 -0.000005 27.607620
v -38.131054 2.127520 67.830368
v -38.131054 -0.000005 67.830368
v -27.956440 2.127520 86.058182
v -27.956440 -0.000005 86.058182
v 9.292746 2.127520 86.058182
v 9.292746 -0.000005 86.058182
v 9.292746 2.127520 70.988724
v 9.292746 -0.000005 70.988724
v -2.043520 2.127520 28.181358
v -2.043520 -0.000005 28.181358
v -40.086906 -0.000005 11.844025
v -40.086906 2.127520 11.844025
v -24.149822 -0.000005 27.767143
v -24.149822 2.127520 27.767143
vn -0.9420 -0.0000 0.3357
vn -0.0000 -0.0000 1.0000
vn 1.0000 -0.0000 -0.0000
vn 0.3737 -0.0000 -0.9276
vn -0.3200 -0.0000 0.9474
vn 0.6968 -0.0000 0.7173
vn -0.0000 -0.0000 -1.0000
vn -0.5627 -0.0000 -0.8267
vn 0.5784 -0.0000 0.8157
vn 0.7977 -0.0000 0.6031
vn 0.6768 -0.0000 -0.7362
vn -0.2137 -0.0000 -0.9769
vn -0.9043 -0.0000 -0.4269
vn 0.9442 -0.0000 0.3295
vn 0.8732 -0.0000 -0.4874
vn -1.0000 -0.0000 -0.0000
vn -0.9667 -0.0000 0.2560
vt 0.962794 0.037206
vt 0.962794 0.962794
vt 0.037206 0.962794
vt 0.037206 0.037206
vt 0.037206 0.962794
vt 0.037206 0.037206
vt 0.037206 0.962794
vt 0.037206 0.037206
vt 0.037206 0.962794
vt 0.037206 0.037206
vt 0.037206 0.962794
vt 0.037206 0.037206
vt 0.037206 0.962794
vt 0.037206 0.037206
vt 0.037206 0.962794
vt 0.037206 0.037206
vt 0.037206 0.962794
vt 0.037206 0.037206
vt 0.037206 0.962794
vt 0.037206 0.037206
vt 0.037206 0.962794
vt 0.037206 0.037206
vt 0.037206 0.962794
vt 0.037206 0.037206
vt 0.037206 0.962794
vt 0.037206 0.037206
vt 0.037206 0.962794
vt 0.037206 0.037206
vt 0.037206 0.962794
vt 0.037206 0.037206
vt 0.037206 0.962794
vt 0.037206 0.037206
vt 0.037206 0.962794
vt 0.037206 0.037206
vt 0.037206 0.962794
vt 0.037206 0.037206
vt 0.037206 0.962794
vt 0.037206 0.037206
vt 0.037206 0.962794
vt 0.037206 0.037206
vt 0.037206 0.962794
vt 0.037206 0.037206
vt 0.037206 0.037206
vt 0.037206 0.962794
vt 0.037206 0.037206
vt 0.037206 0.962794
s 0
usemtl Wall_01
f 64/64/19 61/61/19 62/62/19 63/63/19
f 64/64/20 63/63/20 65/65/20 66/66/20
f 66/66/21 65/65/21 67/67/21 68/68/21
f 68/68/22 67/67/22 69/69/22 70/70/22
f 70/70/23 69/69/23 71/71/23 72/72/23
f 72/72/24 71/71/24 73/73/24 74/74/24
f 74/74/21 73/73/21 75/75/21 76/76/21
f 76/76/25 75/75/25 77/77/25 78/78/25
f 78/78/26 77/77/26 79/79/26 80/80/26
f 103/103/27 104/104/27 81/81/27 82/82/27
f 82/82/20 81/81/20 83/83/20 84/84/20
f 84/84/28 83/83/28 85/85/28 86/86/28
f 86/86/29 85/85/29 87/87/29 88/88/29
f 88/88/30 87/87/30 89/89/30 90/90/30
f 90/90/31 89/89/31 91/91/31 92/92/31
f 105/105/32 106/106/32 93/93/32 94/94/32
f 94/94/33 93/93/33 95/95/33 96/96/33
f 96/96/25 95/95/25 97/97/25 98/98/25
f 98/98/34 97/97/34 99/99/34 100/100/34
f 100/100/35 99/99/35 101/101/35 102/102/35
