# Blender 3.3.1
# www.blender.org
mtllib wallmask01.mtl
o Plane.009
v -39.856358 -0.000003 11.471935
v -30.944290 -0.000003 20.629045
v -39.856358 106.741341 11.471935
v -30.944290 106.741341 20.629045
v -39.786484 -0.000003 5.543884
v -39.786484 106.741341 5.543884
v -39.757214 -0.000003 2.090224
v -39.757214 106.741341 2.090224
v -39.568439 -0.000003 -10.699115
v -39.568439 106.741341 -10.699115
v -35.320614 -0.000003 -14.876958
v -35.320614 106.741341 -14.876960
v -32.853966 -0.000003 -17.275036
v -32.853966 106.741341 -17.275036
v -23.593220 -0.000003 -26.376411
v -23.593218 106.741341 -26.376411
v 11.465870 -0.000003 -31.004063
v 11.465874 106.741341 -31.004059
v 11.413651 -0.000003 27.578648
v 11.413651 106.741348 27.578648
v 11.438255 106.741348 2.365653
v 11.438255 -0.000003 2.513888
v 11.440647 -0.000003 -0.275567
v 11.440643 106.741348 -0.086394
v 11.438255 2.222562 2.570222
v 11.440647 2.135611 0.128583
v -73.562210 -0.000003 34.624638
v -73.562210 106.741348 34.624638
v -96.059395 -0.000003 34.760433
v -96.059395 106.741348 34.760433
v -107.690231 -0.000003 34.634697
v -107.690239 106.741348 34.634697
v -98.139297 106.741348 -32.325275
v -98.139297 -0.000003 -32.325275
v -35.065510 -0.000003 -60.043602
v -35.065510 106.741341 -60.043602
v -8.131771 -0.000003 27.578651
v 11.413651 -0.000003 27.578651
v -8.131775 106.741341 27.578655
v 11.413651 106.741341 27.578651
v -1.383568 -0.000003 27.578651
v -1.383568 106.741341 27.578651
v 17.201408 -0.000003 94.691078
v 17.201412 106.741348 94.691078
v -24.200544 -0.000003 27.403858
v -11.559242 -0.000003 27.597527
v -24.200544 106.741341 27.403862
v -11.559242 106.741341 27.597530
v -28.525366 -0.000003 23.131882
v -28.525366 106.741341 23.131882
v -51.449509 -0.000003 94.877480
v -51.449509 106.741348 94.877480
vn -0.7166 -0.0000 0.6975
vn -0.9999 -0.0000 -0.0118
vn -0.9999 -0.0000 -0.0148
vn -0.7012 -0.0000 -0.7130
vn -0.7009 -0.0000 -0.7132
vn -0.1309 -0.0000 -0.9914
vn 1.0000 -0.0000 0.0010
vn 1.0000 -0.0000 0.0008
vn -0.5662 -0.0000 -0.8243
vn -0.0060 -0.0000 -1.0000
vn 0.0108 -0.0000 -0.9999
vn 0.3464 -0.0000 -0.9381
vn 0.9466 -0.0000 -0.3225
vn -0.0000 -0.0000 1.0000
vn -0.9637 -0.0000 0.2669
vn -0.0153 -0.0000 0.9999
vn -0.7027 -0.0000 0.7114
vn -0.9272 -0.0000 -0.3745
vt 0.000000 0.000000
vt 1.000000 0.000000
vt 0.000000 1.000000
vt 1.000000 1.000000
vt 0.000000 0.000000
vt 0.000000 1.000000
vt 0.000000 0.000000
vt 0.000000 1.000000
vt 0.000000 0.000000
vt 0.000000 1.000000
vt 0.000000 0.000000
vt 0.000000 1.000000
vt 0.000000 0.000000
vt 0.000000 1.000000
vt 0.000000 0.000000
vt 0.000000 1.000000
vt 0.000000 0.000000
vt 0.000000 1.000000
vt 0.000000 0.000000
vt 0.000000 1.000000
vt 0.000000 1.000000
vt 0.000000 0.000000
vt 0.000000 0.000000
vt 0.000000 1.000000
vt 0.000000 0.108921
vt 0.000000 0.113582
vt 0.000000 0.000000
vt 0.000000 1.000000
vt 0.000000 0.000000
vt 0.000000 1.000000
vt 0.000000 0.000000
vt 0.000000 1.000000
vt 0.000000 1.000000
vt 0.000000 0.000000
vt 0.000000 0.000000
vt 0.000000 1.000000
vt 0.000000 0.000000
vt 1.000000 0.000000
vt 0.000000 1.000000
vt 1.000000 1.000000
vt 0.345258 0.000000
vt 0.345258 1.000000
vt 0.345258 0.000000
vt 0.345258 1.000000
vt 0.000000 0.000000
vt 1.000000 0.000000
vt 0.000000 1.000000
vt 1.000000 1.000000
vt 0.000000 0.000000
vt 0.000000 1.000000
vt 0.000000 0.000000
vt 0.000000 1.000000
s 0
usemtl Material
f 1/1/1 2/2/1 4/4/1 3/3/1
f 1/1/2 3/3/2 6/6/2 5/5/2
f 7/7/3 8/8/3 10/10/3 9/9/3
f 9/9/4 10/10/4 12/12/4 11/11/4
f 13/13/5 14/14/5 16/16/5 15/15/5
f 15/15/6 16/16/6 18/18/6 17/17/6
f 22/22/7 25/25/7 21/21/7 20/20/7 19/19/7
f 17/17/8 18/18/8 24/24/8 26/26/8 23/23/8
f 25/25/7 26/26/7 24/24/7 21/21/7
f 3/3/9 1/1/9 27/27/9 28/28/9
f 28/28/10 27/27/10 29/29/10 30/30/10
f 30/30/11 29/29/11 31/31/11 32/32/11
f 10/10/12 9/9/12 34/34/12 33/33/12
f 15/15/13 35/35/13 36/36/13 16/16/13
f 41/41/14 38/38/14 40/40/14 42/42/14
f 37/37/14 41/41/14 42/42/14 39/39/14
f 42/42/15 41/41/15 43/43/15 44/44/15
f 45/45/16 46/46/16 48/48/16 47/47/16
f 45/45/17 47/47/17 50/50/17 49/49/17
f 47/47/18 45/45/18 51/51/18 52/52/18
