# Blender 3.3.1
# www.blender.org
mtllib wallmask02.mtl
o WallMask
v -39.856358 -0.000003 11.471935
v -30.944290 -0.000003 20.629045
v -39.856358 106.741341 11.471935
v -30.944290 106.741341 20.629045
v -39.786484 -0.000003 5.543884
v -39.786484 106.741341 5.543884
v -39.757214 -0.000003 2.090224
v -39.757214 106.741341 2.090224
v -39.568439 -0.000003 -10.699115
v -39.568439 106.741341 -10.699115
v -35.320614 -0.000003 -14.876958
v -35.320614 106.741341 -14.876960
v -32.853966 -0.000003 -17.275036
v -32.853966 106.741341 -17.275036
v 11.465878 -0.000003 -37.634151
v 11.465874 106.741341 -37.634148
v 11.440647 -0.000003 -0.275567
v 11.440643 106.741348 29.137402
v 11.440651 -0.043478 29.352383
v -1309.501709 -0.000003 622.751038
v -1309.501709 106.741348 622.751038
v -1158.944214 106.741341 -556.089478
v -1158.944214 -0.000003 -556.089478
v -11.749153 -0.000003 -993.360046
v -11.749153 106.741348 -993.360046
v -8.131771 -0.000003 27.578651
v -8.131775 106.741341 27.578655
v 274.907410 -0.000003 546.168823
v 274.907410 106.741341 546.168823
v -24.200544 -0.000003 27.403858
v -11.559242 -0.000003 27.597527
v -24.200544 106.741341 27.403862
v -11.559242 106.741341 27.597530
v -28.525366 -0.000003 23.131882
v -28.525366 106.741341 23.131882
v -139.591858 -0.000003 922.714539
v -139.591858 106.741348 922.714539
v 142.950928 106.741348 292.405609
v 142.950928 -0.043478 292.620605
v 70.551544 -0.000003 -347.074280
v 70.551544 106.741348 -347.074280
vn -0.7166 -0.0000 0.6975
vn -0.9999 -0.0000 -0.0118
vn -0.9999 -0.0000 -0.0148
vn -0.7012 -0.0000 -0.7130
vn 1.0000 -0.0001 0.0004
vn 0.4380 -0.0000 -0.8990
vn -0.8778 -0.0000 0.4791
vn -0.0153 -0.0000 0.9999
vn -0.7027 -0.0000 0.7114
vn -0.9918 -0.0000 -0.1278
vn 0.9998 -0.0000 0.0216
vn -0.4338 -0.0000 -0.9010
vn 0.8946 -0.0009 -0.4469
vn 0.9823 -0.0000 0.1876
vt 0.000000 0.000000
vt 1.000000 0.000000
vt 0.000000 1.000000
vt 1.000000 1.000000
vt 0.000000 0.000000
vt 0.000000 1.000000
vt 0.000000 0.000000
vt 0.000000 1.000000
vt 0.000000 0.000000
vt 0.000000 1.000000
vt 0.000000 0.000000
vt 0.000000 1.000000
vt 0.000000 0.000000
vt 0.000000 1.000000
vt 0.000000 0.000000
vt 0.000000 1.000000
vt 0.000000 0.000000
vt 0.000000 1.000000
vt 0.000000 0.113582
vt 0.000000 0.000000
vt 0.000000 1.000000
vt 0.000000 1.000000
vt 0.000000 0.000000
vt 0.000000 0.000000
vt 0.000000 1.000000
vt 0.000000 0.000000
vt 0.000000 1.000000
vt 0.345258 0.000000
vt 0.345258 1.000000
vt 0.000000 0.000000
vt 1.000000 0.000000
vt 0.000000 1.000000
vt 1.000000 1.000000
vt 0.000000 0.000000
vt 0.000000 1.000000
vt 0.000000 0.000000
vt 0.000000 1.000000
vt 0.000000 1.000000
vt 0.000000 0.113582
vt 0.000000 0.000000
vt 0.000000 1.000000
s 0
usemtl Material
f 1/1/1 2/2/1 4/4/1 3/3/1
f 1/1/2 3/3/2 6/6/2 5/5/2
f 7/7/3 8/8/3 10/10/3 9/9/3
f 9/9/4 10/10/4 12/12/4 11/11/4
f 15/15/5 16/16/5 18/18/5 19/19/5 17/17/5
f 10/10/6 9/9/6 23/23/6 22/22/6
f 26/26/7 28/28/7 29/29/7 27/27/7
f 30/30/8 31/31/8 33/33/8 32/32/8
f 30/30/9 32/32/9 35/35/9 34/34/9
f 32/32/10 30/30/10 36/36/10 37/37/10
f 13/13/11 24/24/11 25/25/11 14/14/11
f 1/1/12 20/20/12 21/21/12 3/3/12
f 19/19/13 18/18/13 38/38/13 39/39/13
f 16/16/14 15/15/14 40/40/14 41/41/14
