# Alias OBJ Model File
# Exported from SketchUp, (c) 2000-2012 Trimble Navigation Limited
# File units = meters

mtllib path.mtl

g Mesh1 Component_1_1 Model

usemtl M_0007_MistyRose
v 0 0 -0
vt 0 626.119
vn 0 -1 -0
v 5.06838 0 -0
vt -199.542 626.119
v 5.06838 0 1.09
vt -199.542 583.205
v 0 0 1.09
vt 0 583.205
f 1/1/1 2/2/1 3/3/1 4/4/1 

v 6.28 0 1.09
vt -247.244 583.205
v 6.28 0 -0
vt -247.244 626.119
f 5/5/1 3/3/1 2/2/1 6/6/1 

v 6.28 0 7.1068
vt -247.244 346.323
v 5.06838 0 7.1068
vt -199.542 346.323
f 5/5/1 7/7/1 8/8/1 3/3/1 

v 18.7849 0 15.072
vt -739.565 32.7318
v 18.2292 0 15.9034
vt -717.687 0
f 7/7/1 9/9/1 10/10/1 8/8/1 

v 6.28 0 -10.8011
vt -247.244 1051.36
v 5.06838 0 -10.8011
vt -199.542 1051.36
f 11/11/1 6/6/1 2/2/1 12/12/1 

