# Blender 3.3.1
# www.blender.org
mtllib entrance_04_01.mtl
o Plane.011
v -33.146427 21.304302 -17.555695
v -33.146423 -0.000003 -17.555691
v -32.554710 21.304302 -16.963978
v -32.554710 -0.000003 -16.963974
v -35.611481 21.304302 -15.186988
v -35.611481 -0.000003 -15.186977
v -35.008919 21.304302 -14.584422
v -35.008919 -0.000003 -14.584416
vn -0.7071 -0.0000 0.7071
vn 0.7071 -0.0000 -0.7071
vt 0.118532 0.794221
vt 0.118531 0.205364
vt 0.885560 0.796606
vt 0.885555 0.205364
vt 0.118532 0.794221
vt 0.118531 0.205364
vt 0.885560 0.796606
vt 0.885555 0.205364
s 0
usemtl Wall_01
f 1/1/1 2/2/1 4/4/1 3/3/1
f 5/5/2 7/7/2 8/8/2 6/6/2
