# Blender 3.3.1
# www.blender.org
mtllib entrance_01_01.mtl
o Plane.006
v -8.141266 21.304302 28.023190
v -8.141258 -0.000003 28.023184
v -8.131784 21.304302 27.171036
v -8.131777 -0.000003 27.171036
v -11.559247 21.304302 27.955067
v -11.559247 -0.000003 27.955059
v -11.559247 -0.000003 27.118250
v -11.559247 21.304302 27.118256
vn -0.9999 -0.0000 -0.0111
vn 1.0000 -0.0000 -0.0000
vt 0.118532 0.794221
vt 0.118531 0.205364
vt 0.885560 0.796606
vt 0.885555 0.205364
vt 0.118532 0.794221
vt 0.118531 0.205364
vt 0.885555 0.205364
vt 0.885560 0.796606
s 0
usemtl Wall_01
f 1/1/1 3/3/1 4/4/1 2/2/1
f 5/5/2 6/6/2 7/7/2 8/8/2
